<svg xmlns="http://www.w3.org/2000/svg" xmlns:xlink="http://www.w3.org/1999/xlink" x="0px" y="0px" viewBox="0 0 98 122.5" style="enable-background:new 0 0 98 98;" xml:space="preserve"><path d="M91.654,63.681l-4.319-3.522c-1.578-1.287-3.909-1.05-5.195,0.528l-1.124,1.379l-7.55-6.193  c0.281-0.591,0.462-1.239,0.516-1.914c0.115-1.422-0.322-2.84-1.197-3.891c-0.453-0.544-1.009-0.983-1.626-1.299  c0.978-1.594,1.14-3.593,0.465-5.001c-0.916-1.912-2.422-2.619-3.617-2.926c1.249-1.775,2.41-4.336,0.106-7.104  c-0.897-1.078-2.096-1.715-3.343-1.884c0.544-1.582,0.433-3.31-0.745-4.786c-0.804-1.007-2.08-1.668-3.503-1.813  c-1.422-0.144-2.772,0.241-3.811,1.081l-6.484-2.148c-1.776-0.587-3.369-0.506-4.738,0.244c-1.266,0.694-2.269,1.93-2.994,3.685  l-2.087-1.763c-1.04-0.879-2.365-1.301-3.728-1.184c-1.364,0.115-2.599,0.751-3.478,1.791c-0.878,1.04-1.299,2.364-1.184,3.727  c0.032,0.379,0.108,0.747,0.218,1.101c-1.22,0.188-2.318,0.796-3.118,1.748c-1.307,1.554-1.525,3.667-0.743,5.41  c-1.007,0.265-1.906,0.828-2.588,1.642c-1.61,1.921-1.565,4.701-0.022,6.576c-0.819,0.302-1.55,0.81-2.125,1.499  c-1.369,1.64-1.538,3.907-0.604,5.704l-7.362,6.13c-1.315-1.394-3.5-1.569-5.006-0.34l-4.32,3.522  c-1.577,1.286-1.815,3.616-0.528,5.194l18.168,22.282c0.621,0.762,1.505,1.238,2.488,1.337c0.128,0.013,0.256,0.02,0.383,0.02  c0.847,0,1.661-0.288,2.323-0.828l4.32-3.522l0.001,0c1.577-1.286,1.815-3.617,0.528-5.194l-2.285-2.803l12.382-9.916  c0.636,0.069,1.259,0.144,1.869,0.218c2.004,0.242,3.96,0.474,5.876,0.405l13.162,10.797l-1.059,1.299  c-1.286,1.577-1.049,3.908,0.528,5.194l4.32,3.522c0.663,0.541,1.477,0.829,2.324,0.829c0.127,0,0.255-0.006,0.383-0.02  c0.983-0.1,1.867-0.575,2.488-1.337l18.168-22.283C93.469,67.297,93.231,64.967,91.654,63.681z M46.769,26.773  c0.703-0.385,1.559-0.402,2.618-0.051l4.904,1.625l-5.805,4.833l-3.823-3.229C45.178,28.342,45.898,27.25,46.769,26.773z   M35.238,28.683c0.483-0.572,1.174-0.867,1.87-0.867c0.558,0,1.119,0.189,1.576,0.577l8.556,7.227  c0.496,0.419,0.799,1.01,0.854,1.663c0.056,0.654-0.145,1.287-0.564,1.784c-0.419,0.496-1.009,0.799-1.663,0.854  c-0.654,0.053-1.287-0.145-1.783-0.565l-8.556-7.227h-0.001c-0.495-0.419-0.799-1.009-0.854-1.663S34.82,29.179,35.238,28.683z   M31.157,35.256c0.418-0.496,1.006-0.799,1.656-0.854c0.646-0.053,1.281,0.147,1.775,0.565l7.059,5.99  c1.03,0.874,1.161,2.428,0.29,3.462c-0.416,0.496-1.005,0.799-1.655,0.854c-0.656,0.057-1.281-0.146-1.775-0.565l-0.344-0.292  l-5.189-4.427c-0.104-0.089-0.214-0.17-0.323-0.25l-1.204-1.021C30.418,37.843,30.287,36.29,31.157,35.256z M27.83,42.304  c0.415-0.496,1.001-0.799,1.648-0.853c0.069-0.006,0.138-0.008,0.206-0.008c0.498,0,0.972,0.16,1.378,0.446l5.401,4.583l0.413,0.352  c1.031,0.879,1.161,2.44,0.291,3.479c-0.415,0.496-1.001,0.799-1.648,0.853c-0.635,0.054-1.251-0.143-1.739-0.548l-2.959-2.539  c-0.073-0.063-0.151-0.118-0.228-0.177l-2.471-2.109v0C27.09,44.903,26.959,43.343,27.83,42.304z M25.686,50.375  c0.414-0.496,0.996-0.798,1.641-0.852c0.596-0.05,1.17,0.129,1.641,0.487l3.054,2.606c0.019,0.016,0.039,0.03,0.058,0.045  l1.512,1.297c1.03,0.884,1.16,2.452,0.289,3.494c-0.414,0.496-0.996,0.798-1.64,0.852c-0.642,0.052-1.268-0.149-1.758-0.569  l-4.507-3.867C24.945,52.985,24.815,51.417,25.686,50.375z M31.813,86.097L31.813,86.097l-4.32,3.522  c-0.21,0.171-0.48,0.251-0.75,0.222c-0.274-0.028-0.52-0.159-0.691-0.369L7.885,67.19c-0.357-0.438-0.291-1.085,0.147-1.442  l4.32-3.522c0.189-0.155,0.419-0.23,0.646-0.23c0.297,0,0.593,0.129,0.795,0.377l0.692,0.849c0,0,0,0.001,0.001,0.001  c0,0,0,0,0.001,0.001l14.329,17.575c0.001,0.001,0.001,0.002,0.002,0.003c0.001,0.001,0.002,0.002,0.003,0.003l3.14,3.851  C32.317,85.093,32.251,85.74,31.813,86.097z M46.314,67.821c-0.799-0.096-1.618-0.195-2.462-0.28  c-0.347-0.037-0.695,0.068-0.967,0.286L30.057,78.1L17.379,62.55l7.419-6.177l3.949,3.388c0.926,0.795,2.08,1.221,3.287,1.221  c0.142,0,0.285-0.006,0.428-0.018c1.361-0.113,2.592-0.752,3.468-1.8c1.32-1.581,1.523-3.744,0.7-5.507  c1.005-0.266,1.902-0.828,2.583-1.641c0.982-1.173,1.345-2.665,1.132-4.077c0.054-0.003,0.108-0.002,0.162-0.007  c1.363-0.115,2.597-0.752,3.473-1.795c0.872-1.036,1.257-2.323,1.188-3.581c0.162,0.015,0.321,0.042,0.485,0.042  c0.146,0,0.293-0.006,0.44-0.018c1.364-0.115,2.599-0.751,3.477-1.791c0.878-1.04,1.3-2.364,1.185-3.728  c-0.056-0.66-0.236-1.288-0.522-1.862l8.132-6.771c0.483-0.401,1.172-0.589,1.887-0.516c0.703,0.072,1.334,0.379,1.689,0.823  c1.024,1.282,0.221,3.121-1.101,4.274c-0.55,0.48-0.612,1.314-0.138,1.87c0.473,0.556,1.306,0.627,1.868,0.16  c1.043-0.869,2.579-0.691,3.493,0.409c1.333,1.601,0.676,2.774-1.029,4.892l-0.115,0.143c-0.586,0.73-0.465,1.369-0.341,1.684  c0.344,0.874,1.228,1.003,1.874,1.097c1.159,0.168,2.168,0.409,2.767,1.66c0.355,0.74,0.101,2.655-1.358,3.441  c-0.554,0.298-0.823,0.942-0.648,1.546c0.175,0.604,0.743,1.006,1.375,0.959c0.817-0.06,1.626,0.281,2.148,0.908  c0.433,0.519,0.647,1.237,0.588,1.969c-0.058,0.727-0.382,1.385-0.888,1.807L57.95,65.945  C54.509,68.811,50.892,68.374,46.314,67.821z M55.399,70.319c1.442-0.436,2.861-1.162,4.258-2.325l12.099-10.073l7.573,6.212  l-12.612,15.47L55.399,70.319z M90.115,67.19L71.948,89.473c-0.171,0.21-0.416,0.341-0.691,0.369  c-0.272,0.029-0.541-0.051-0.751-0.222l-4.32-3.522l0.001,0c-0.438-0.357-0.504-1.004-0.147-1.442l18.166-22.282  c0.359-0.439,1.005-0.504,1.443-0.147l4.319,3.522C90.406,66.105,90.472,66.752,90.115,67.19z M46.712,13.458V6.819  c0-0.737,0.597-1.334,1.334-1.334s1.334,0.597,1.334,1.334v6.639c0,0.737-0.597,1.334-1.334,1.334S46.712,14.194,46.712,13.458z   M25.506,14.118c-0.368-0.638-0.149-1.454,0.488-1.822c0.639-0.37,1.453-0.15,1.822,0.488l3.319,5.75  c0.368,0.638,0.149,1.454-0.488,1.822c-0.21,0.121-0.44,0.179-0.665,0.179c-0.461,0-0.909-0.239-1.157-0.667L25.506,14.118z   M10.302,29.221c0.368-0.638,1.182-0.858,1.822-0.488l5.75,3.319c0.638,0.368,0.856,1.184,0.488,1.822  c-0.248,0.428-0.695,0.667-1.157,0.667c-0.226,0-0.455-0.058-0.665-0.179l-5.75-3.319C10.153,30.674,9.935,29.859,10.302,29.221z   M79.413,30.957c-0.368-0.638-0.149-1.453,0.488-1.822l5.75-3.32c0.639-0.369,1.453-0.15,1.822,0.488  c0.368,0.638,0.149,1.453-0.488,1.822l-5.75,3.32c-0.21,0.121-0.44,0.179-0.665,0.179C80.109,31.624,79.661,31.385,79.413,30.957z   M65.407,16.85l3.319-5.75c0.368-0.638,1.182-0.858,1.822-0.488c0.638,0.368,0.856,1.184,0.488,1.822l-3.319,5.75  c-0.247,0.428-0.695,0.667-1.157,0.667c-0.226,0-0.455-0.058-0.665-0.179C65.258,18.304,65.039,17.488,65.407,16.85z"/></svg>