<svg xmlns="http://www.w3.org/2000/svg" xmlns:xlink="http://www.w3.org/1999/xlink" x="0px" y="0px" viewBox="0 0 62 77.5" style="enable-background:new 0 0 62 62;" xml:space="preserve"><g><path d="M59.96,29.25l-9.37-9.37c-0.39-0.39-1.02-0.39-1.41,0l-3.9,3.9c-0.39,0.39-0.39,1.02,0,1.41l0.59,0.59   c-1,0.89-2.8,2.28-5.12,3.07c-0.81,0.16-6.05,1.4-8.32,8.05c-0.39,1.01-1.65,3.92-2.75,5.18c-0.77,0.87-0.76,1.6-0.62,2.06   c0.15,0.48,0.58,1.1,1.79,1.43c-0.57,0.21-1.33,0.42-2.36,0.6l-6.67,1.22c-0.36,0.07-0.71,0.22-1.01,0.44   c-0.88,0.66-1.34,1.43-1.31,2.22c0.02,0.51,0.25,1.25,1.25,1.91c0.38,0.25,0.84,0.38,1.3,0.38c0.05,0,0.1,0,0.15,0l12.06-0.75   c0.71,0.03,4.36-0.2,8.98-6.51L54.3,34.22l0.35,0.35c0.19,0.19,0.44,0.29,0.71,0.29s0.52-0.11,0.71-0.29l3.9-3.9   C60.35,30.27,60.35,29.64,59.96,29.25z M41.77,43.7c-0.04,0.04-0.08,0.08-0.11,0.13c-4.22,5.8-7.32,5.76-7.33,5.76   c-0.05,0-0.1,0-0.15,0l-12.11,0.76c-0.09,0.01-0.17-0.01-0.23-0.06C21.58,50.11,21.51,50,21.5,50c0.01-0.07,0.15-0.3,0.51-0.56   c0.05-0.04,0.11-0.06,0.17-0.07l6.66-1.22c3.97-0.68,4.89-1.96,5.39-2.65c0.04-0.06,0.08-0.11,0.11-0.15   c1.22-1.5,5.07-6.92,5.11-6.97c0.32-0.45,0.21-1.06-0.23-1.39c-0.44-0.32-1.06-0.23-1.39,0.21c-1.28,1.71-4.18,4.43-6.5,6.44   c-0.1-0.03-0.19-0.06-0.25-0.09c0.03-0.04,0.06-0.08,0.11-0.13c1.57-1.78,3.06-5.62,3.13-5.82c2.02-5.91,6.65-6.74,6.84-6.77   c0.06-0.01,0.11-0.02,0.17-0.04c2.73-0.92,4.83-2.56,5.96-3.58l5.6,5.6L41.77,43.7z M55.35,32.44l-7.96-7.96L49.88,22l7.96,7.96   L55.35,32.44z"/><path d="M23.38,32.91c-0.42,0-0.79,0.26-0.94,0.65c-0.44,1.19-1.88,5.14-1.88,6.29c0,1.61,1.26,2.91,2.82,2.91s2.82-1.31,2.82-2.91   c0-1.15-1.44-5.1-1.88-6.29C24.17,33.17,23.8,32.91,23.38,32.91z M23.38,40.76c-0.45,0-0.82-0.41-0.82-0.91   c0-0.35,0.35-1.54,0.82-2.93c0.46,1.39,0.81,2.59,0.82,2.93C24.2,40.35,23.83,40.76,23.38,40.76z"/><path d="M19.7,30.4c0,0.55,0.45,1,1,1h5.35c0.55,0,1-0.45,1-1v-4.65c0-5.09-3.96-9.23-8.84-9.23h-5.44v-1.55c0-0.55-0.45-1-1-1   h-1.55v-2.31h1.55c0.55,0,1-0.45,1-1s-0.45-1-1-1h-5.1c-0.55,0-1,0.45-1,1s0.45,1,1,1h1.55v2.31H6.67c-0.55,0-1,0.45-1,1v1.55H2.75   c-0.55,0-1,0.45-1,1v5.62c0,0.55,0.45,1,1,1h2.92v1.41c0,0.55,0.45,1,1,1h5.1c0.55,0,1-0.45,1-1v-1.41h5.44   c0.79,0,1.49,0.75,1.49,1.61V30.4z M3.75,22.14v-3.62h1.92v3.62H3.75z M10.77,24.55h-3.1v-8.58h3.1V24.55z M18.21,22.14h-5.44   v-3.62h5.44c3.77,0,6.84,3.25,6.84,7.23v3.65H21.7v-3.65C21.7,23.79,20.1,22.14,18.21,22.14z"/></g></svg>