<svg xmlns="http://www.w3.org/2000/svg" viewBox="-5.0 -10.0 110.0 135.0"><path d="m50.77 77.199v0.074219c0.003907 1.2227 0.99219 2.2109 2.2148 2.2188h10.617c1.2188-0.007813 2.207-0.99609 2.2148-2.2188v-0.074219zm0-6.4492v3.7188h15.043v-3.7227h-15.043zm21.578-31.148c-0.34766-0.66797-0.089844-1.4883 0.57422-1.8359 0.66797-0.34375 1.4883-0.085937 1.8359 0.57812 1.1211 2.0898 1.8203 4.3828 2.0586 6.7422 0.21484 2.1641-0.12109 4.3477-0.97656 6.3477-0.14062 0.33594-0.41016 0.60156-0.74609 0.73828-0.33984 0.13672-0.71875 0.12891-1.0508-0.015625-0.33594-0.14453-0.59766-0.41797-0.72656-0.75781-0.13281-0.33984-0.12109-0.71875 0.03125-1.0508 0.66797-1.5859 0.92578-3.3164 0.75-5.0273-0.19922-2.0039-0.79688-3.9492-1.75-5.7188zm-15.422-29.301c-0.007812-0.36719 0.12891-0.72656 0.38672-0.98828 0.25781-0.26562 0.60938-0.41406 0.97656-0.41406 0.37109 0 0.72266 0.14844 0.98047 0.41406 0.25391 0.26172 0.39453 0.62109 0.38281 0.98828v6.8008c0.011718 0.36719-0.12891 0.72266-0.38281 0.98828-0.25781 0.26172-0.60938 0.41016-0.98047 0.41016-0.36719 0-0.71875-0.14844-0.97656-0.41016-0.25781-0.26562-0.39453-0.62109-0.38672-0.98828zm17.859 4.0586c0.375-0.64844 1.207-0.87109 1.8555-0.5 0.64844 0.375 0.875 1.2031 0.5 1.8516l-3.4609 5.9883c-0.17188 0.32422-0.46875 0.5625-0.82031 0.66016-0.35547 0.10156-0.73047 0.054687-1.0508-0.12891-0.31641-0.18359-0.54688-0.48438-0.63672-0.83984s-0.035156-0.73047 0.15625-1.043l3.4609-5.9922zm13.438 12.434c0.64844-0.375 1.4805-0.15234 1.8555 0.49609 0.37891 0.64844 0.15625 1.4805-0.49219 1.8594l-6.3008 3.6367v-0.003906c-0.64844 0.37891-1.4844 0.15625-1.8594-0.49219-0.375-0.65234-0.15625-1.4844 0.49609-1.8594zm5.418 17.488c0.75 0 1.3633 0.60938 1.3633 1.3633 0 0.75391-0.61328 1.3633-1.3633 1.3633h-7.75c-0.75 0-1.3633-0.60937-1.3633-1.3633 0-0.75391 0.61328-1.3633 1.3633-1.3633zm-4.0586 17.859h-0.003906c0.65234 0.375 0.87891 1.207 0.50391 1.8555-0.375 0.65234-1.2031 0.87891-1.8555 0.50391l-7.1055-4.1016h-0.003906c-0.32031-0.17188-0.55859-0.46875-0.65625-0.82031-0.10156-0.35547-0.054688-0.73047 0.12891-1.0508 0.17969-0.31641 0.48438-0.54688 0.83984-0.63672 0.35156-0.089844 0.73047-0.035156 1.043 0.15625l7.1055 4.1016zm-52.523-15.98c0.015625 3.8984 1.1055 7.7148 3.1445 11.035 2.043 3.3203 4.957 6.0117 8.4258 7.7852 1.1758 0.58984 1.9727 1.7344 2.1133 3.0391h6.1836v-23.457h-2.6133c-0.75391 0-1.3633-0.60938-1.3633-1.3633 0-0.75391 0.60938-1.3633 1.3633-1.3633h7.9531c0.75391 0 1.3672 0.60937 1.3672 1.3633 0 0.75391-0.61328 1.3633-1.3672 1.3633h-2.6133v23.457h6.1875c0.058594-0.56641 0.24609-1.1133 0.54297-1.6016 0.37891-0.61328 0.92188-1.1133 1.5664-1.4375 6.0625-3.1133 10.266-8.9453 11.301-15.68 1.0312-6.7383-1.2305-13.562-6.082-18.348-4.8516-4.7852-11.707-6.9531-18.43-5.8242-0.9375 0.15625-1.8633 0.375-2.7734 0.66016l-5.6484 18.91c-0.52344 1.7617-2.3008 2.8359-4.1016 2.4805zm-6-3.9492 11.898-17.746h0.003907c0.40625-0.53516 0.35937-1.2891-0.10547-1.7695-0.46484-0.48437-1.2148-0.55469-1.7656-0.16797l-24.039 16.941-8.6523-1.6953c-0.35156-0.0625-0.625-0.34375-0.67578-0.69922-0.054687-0.35156 0.125-0.70312 0.44141-0.86328l43.191-22.895c0.14844-0.082031 0.31641-0.11719 0.48438-0.10156 0.16406 0.019531 0.32031 0.085937 0.44531 0.19141 0.12891 0.10547 0.22656 0.24219 0.28125 0.40234 0.042969 0.16016 0.039063 0.33203-0.011718 0.49219l-8.8516 29.621c-0.11719 0.41406-0.53906 0.66797-0.96484 0.58203l-11.676-2.293zm-3.6094 0.69922v-0.015625c0.042969-0.21094 0.12891-0.40625 0.26172-0.57422l8.9414-13.336-17.387 12.254 6.4844 9 1.6992-7.3242zm5.6875 2.4844-4.4648 4.2852 1.1445-4.9336 3.3164 0.64844zm27.301 37.348c0.019531-0.015626 0.039062-0.027344 0.0625-0.039063 0.042969-0.027344 0.085938-0.058594 0.12891-0.089844 0.15625-0.11328 0.29688-0.24609 0.41797-0.39453h-5.5117c0.12109 0.14844 0.26172 0.28125 0.41797 0.39453 0.6875 0.46875 1.5039 0.71094 2.3359 0.69141 0.75391 0.011718 1.4961-0.17969 2.1445-0.5625zm-0.62891 3.1289c-0.17578 1.7188-0.78906 2.4336-1.6641 2.4766-3.7695 0.18359-11.48-6.6953-16.059-10.773-2.0273-1.8086-3.5-3.1211-4.2305-3.3164-4.1914-1.1328-4.8125-1.9258-4.6055-2.6836v-0.003907c0.11719-0.375 0.26562-0.74219 0.44531-1.0938 1.1016-2.3438 2.2891-4.8945-3.1719-7.75-2.5625-1.3398-2.5156-4.3008-2.4688-7.1328 0.011718-0.66016 0.023437-1.3164 0.007812-1.9609l-0.003906 0.003907c0.46094-0.17188 0.88281-0.4375 1.2344-0.78125l5.1133-4.9102v0.003907c0.29297 3.7539 1.4688 7.3867 3.4375 10.598 2.3086 3.7734 5.6133 6.8359 9.5508 8.8516 0.19922 0.097656 0.36328 0.25 0.48047 0.4375 0.11328 0.19141 0.16797 0.41016 0.16406 0.62891v8.8047c0.003907 2.5703 1.9688 4.707 4.5273 4.9297 0.25 1.0547 0.87891 1.9805 1.7695 2.6016 1.1523 0.81641 2.5391 1.25 3.9531 1.2344 0.51172 0 1.0195-0.054687 1.5195-0.16016zm-6.9297-63.148c0.46484-0.10547 0.9375-0.19922 1.4102-0.28125h0.003907c7.5859-1.2812 15.332 1.1562 20.812 6.5586s8.0352 13.109 6.8633 20.715c-1.1719 7.6055-5.9297 14.184-12.781 17.684-0.41016 0.19531-0.66406 0.61328-0.64844 1.0664v8.8047c0 2.5703-1.9648 4.707-4.5234 4.9297-0.21484 0.91406-0.71875 1.7305-1.4375 2.332 0.050781 4.5703-1.6484 6.3984-4.3086 6.5312-4.8828 0.23828-13.113-7.1016-18-11.457-1.75-1.5625-3.0195-2.6953-3.1211-2.7227-6.418-1.7344-7.1406-3.7734-6.5352-6.0195v0.003907c0.16016-0.52734 0.36719-1.043 0.61719-1.5391 0.57031-1.2188 1.1875-2.5391-1.9688-4.1914-4.0508-2.1172-3.9883-5.9297-3.9297-9.5859 0.011719-0.6875 0.023438-1.3711 0-2.0234-0.09375-0.042969-0.18359-0.089844-0.27344-0.14062v0.003906c-0.44531-0.25391-0.82812-0.60156-1.125-1.0195l-7.3594-10.223-8.6992-1.6992c-1.4883-0.28516-2.6328-1.4805-2.8516-2.9766-0.21875-1.5 0.53125-2.9727 1.875-3.6719l43.191-22.895c1.2656-0.67188 2.8164-0.51953 3.9258 0.39062 1.1094 0.91406 1.5664 2.4023 1.1484 3.7773z" fill-rule="evenodd"/></svg>