<svg xmlns="http://www.w3.org/2000/svg" data-name="Layer 1" viewBox="0 0 95 118.75" x="0px" y="0px"><path d="M91.485,45.314c-.2-1.744-2.49-2.938-7.34-3.847a78.789,78.789,0,0,0-11.2-1.128V15.78a1.266,1.266,0,0,0-.371-.895L59.058,1.371a1.266,1.266,0,0,0-.9-.371H14.34A4.848,4.848,0,0,0,9.5,5.842V7.009H8.33a4.847,4.847,0,0,0-4.842,4.842V78.486A4.848,4.848,0,0,0,8.33,83.329H45.788v5.358a1.23,1.23,0,0,0,.027.259c.2,1.744,2.49,2.938,7.34,3.847A88.41,88.41,0,0,0,68.65,94a88.41,88.41,0,0,0,15.495-1.207c4.844-.908,7.133-2.1,7.339-3.841a1.288,1.288,0,0,0,.028-.265V45.573A1.23,1.23,0,0,0,91.485,45.314ZM88.979,74.621C86.311,75.9,78.851,77.1,68.65,77.1s-17.661-1.2-20.329-2.474V62.967c3.978,1.4,11.621,2.29,20.329,2.29S85,64.368,88.979,62.967Zm0-26.277V60.25c-2.668,1.275-10.128,2.474-20.329,2.474s-17.661-1.2-20.329-2.474V48.344a23.274,23.274,0,0,0,4.834,1.335,88.41,88.41,0,0,0,15.5,1.207,88.41,88.41,0,0,0,15.495-1.207A23.311,23.311,0,0,0,88.979,48.344Zm-42.1-4.72a2.5,2.5,0,0,0-1.063,1.684,1.288,1.288,0,0,0-.027.265v3.589h-2.7V37.745h3.789Zm41.911,1.949c-.484.346-1.938,1.095-5.994,1.772A89.821,89.821,0,0,1,68.65,48.352a89.812,89.812,0,0,1-14.145-1.007c-4.056-.677-5.51-1.426-5.994-1.772.484-.347,1.938-1.095,5.994-1.773A89.932,89.932,0,0,1,68.65,42.793,89.941,89.941,0,0,1,82.8,43.8C86.85,44.478,88.305,45.226,88.789,45.573ZM59.429,5.324l9.189,9.19h-6.88a2.312,2.312,0,0,1-2.309-2.309Zm-47.4.518a2.312,2.312,0,0,1,2.31-2.309H56.9v8.672a4.847,4.847,0,0,0,4.842,4.842h8.671V40.274c-.582-.008-1.168-.014-1.759-.014a88.41,88.41,0,0,0-15.5,1.207,28.9,28.9,0,0,0-3.744.922v-5.91a1.266,1.266,0,0,0-1.266-1.267H41.823a1.267,1.267,0,0,0-1.267,1.267v13.95A1.266,1.266,0,0,0,41.823,51.7h3.965v3.819h-29.3a1.267,1.267,0,1,0,0,2.533h29.3v2.407H33.8a1.267,1.267,0,0,0,0,2.533H45.788v2.406h-29.3a1.267,1.267,0,1,0,0,2.534h29.3v6.859H14.34a2.311,2.311,0,0,1-2.31-2.309ZM8.33,80.8a2.311,2.311,0,0,1-2.309-2.309V11.851A2.312,2.312,0,0,1,8.33,9.542H9.5V72.477A4.848,4.848,0,0,0,14.34,77.32H45.788V80.8Zm80.646,7.737c-.2.2-1.325,1.116-6.181,1.928A89.941,89.941,0,0,1,68.65,91.467,89.932,89.932,0,0,1,54.505,90.46c-4.858-.812-5.985-1.726-6.181-1.928l0-.02V77.338c3.978,1.4,11.621,2.291,20.329,2.291S85,78.739,88.979,77.338V88.51ZM84.1,52.563a1.267,1.267,0,1,1,.342,2.51,122.057,122.057,0,0,1-15.793.938c-2.359,0-4.694-.055-6.94-.163a1.266,1.266,0,1,1,.121-2.53c2.206.106,4.5.16,6.819.16A119.479,119.479,0,0,0,84.1,52.563ZM85.527,57.7a1.267,1.267,0,0,1-1.084,1.426,122.054,122.054,0,0,1-15.793.939c-2.357,0-4.692-.055-6.94-.163a1.267,1.267,0,1,1,.121-2.531c2.209.107,4.5.161,6.819.161A119.5,119.5,0,0,0,84.1,56.621,1.266,1.266,0,0,1,85.527,57.7Zm-31.98-5.265a3.571,3.571,0,1,0,3.571,3.571A3.575,3.575,0,0,0,53.547,52.439Zm0,4.609a1.038,1.038,0,1,1,1.038-1.038A1.039,1.039,0,0,1,53.547,57.048Zm15.1,11.323A119.5,119.5,0,0,0,84.1,67.456a1.267,1.267,0,0,1,.342,2.51A122.068,122.068,0,0,1,68.65,70.9c-2.357,0-4.692-.054-6.94-.163a1.266,1.266,0,1,1,.121-2.53C64.04,68.317,66.334,68.371,68.65,68.371ZM85.527,72.6a1.267,1.267,0,0,1-1.084,1.426,122.09,122.09,0,0,1-15.793.938c-2.36,0-4.7-.055-6.941-.163a1.266,1.266,0,0,1,.122-2.53c2.2.106,4.5.16,6.819.16A119.513,119.513,0,0,0,84.1,71.514,1.267,1.267,0,0,1,85.527,72.6Zm-31.98-5.266A3.571,3.571,0,1,0,57.118,70.9,3.575,3.575,0,0,0,53.547,67.332Zm0,4.609A1.038,1.038,0,1,1,54.585,70.9,1.038,1.038,0,0,1,53.547,71.941Zm31.98,10.97a1.268,1.268,0,0,1-1.084,1.427,122.057,122.057,0,0,1-15.793.938c-2.359,0-4.694-.055-6.94-.163a1.266,1.266,0,1,1,.121-2.53c2.206.106,4.5.16,6.819.16A119.479,119.479,0,0,0,84.1,81.828,1.266,1.266,0,0,1,85.527,82.911Zm0,4.058A1.267,1.267,0,0,1,84.443,88.4a122.057,122.057,0,0,1-15.793.938c-2.359,0-4.694-.054-6.94-.162a1.267,1.267,0,1,1,.121-2.531c2.206.106,4.5.16,6.819.16A119.479,119.479,0,0,0,84.1,85.885,1.267,1.267,0,0,1,85.527,86.969ZM53.547,81.7a3.571,3.571,0,1,0,3.571,3.571A3.575,3.575,0,0,0,53.547,81.7Zm0,4.608a1.038,1.038,0,1,1,1.038-1.037A1.038,1.038,0,0,1,53.547,86.312ZM24.039,30.637H17.717A1.267,1.267,0,0,0,16.45,31.9V50.429A1.266,1.266,0,0,0,17.717,51.7h6.322a1.267,1.267,0,0,0,1.267-1.266V31.9A1.267,1.267,0,0,0,24.039,30.637ZM22.772,49.162H18.983V33.17h3.789Zm13.32-23.675H29.77A1.267,1.267,0,0,0,28.5,26.754V50.429A1.266,1.266,0,0,0,29.77,51.7h6.322a1.266,1.266,0,0,0,1.266-1.266V26.754A1.266,1.266,0,0,0,36.092,25.487ZM34.825,49.162H31.036V28.021h3.789ZM15.9,15.591a1.266,1.266,0,0,1,1.267-1.266H31.334a1.267,1.267,0,0,1,0,2.533H17.169A1.267,1.267,0,0,1,15.9,15.591Zm8.943,3.679H37.36a1.267,1.267,0,1,1,0,2.533H24.845a1.267,1.267,0,0,1,0-2.533ZM15.9,20.536a1.266,1.266,0,0,1,1.267-1.266H21.01a1.267,1.267,0,1,1,0,2.533H17.169A1.267,1.267,0,0,1,15.9,20.536ZM56.5,36.815a1.266,1.266,0,0,1,1.267-1.266h8.189a1.267,1.267,0,1,1,0,2.533H57.768A1.267,1.267,0,0,1,56.5,36.815Zm-4.625,0a1.266,1.266,0,0,1,1.266-1.266h.993a1.267,1.267,0,1,1,0,2.533h-.993A1.266,1.266,0,0,1,51.876,36.815ZM15.216,61.72a1.266,1.266,0,0,1,1.267-1.266H30.508a1.267,1.267,0,1,1,0,2.533H16.483A1.267,1.267,0,0,1,15.216,61.72Z"/></svg>