<svg xmlns="http://www.w3.org/2000/svg" xmlns:xlink="http://www.w3.org/1999/xlink" x="0px" y="0px" viewBox="0 0 2000 2500" style="enable-background:new 0 0 2000 2000;" xml:space="preserve"><g><path d="M885.94,1030.6c40.58,40.58,87.8,72.46,140.34,94.75c54.43,23.09,112.17,34.8,171.6,34.8c59.43,0,117.17-11.71,171.6-34.8   c52.54-22.29,99.75-54.16,140.34-94.75c40.58-40.58,72.46-87.8,94.75-140.34c23.09-54.44,34.8-112.17,34.8-171.6   c0-59.43-11.71-117.17-34.8-171.6c-22.29-52.54-54.16-99.75-94.75-140.34c-40.58-40.58-87.8-72.46-140.34-94.75   c-54.44-23.09-112.17-34.8-171.6-34.8c-59.43,0-117.17,11.71-171.6,34.8c-52.54,22.29-99.75,54.16-140.34,94.75   c-40.58,40.58-72.46,87.8-94.75,140.34c-23.09,54.44-34.8,112.17-34.8,171.6c0,59.43,11.71,117.17,34.8,171.6   C813.48,942.8,845.36,990.02,885.94,1030.6z M993.83,1064.33c12.95-16.62,27.84-33.42,42.36-49.82   c41.78-47.17,84.98-95.94,91.8-149.25l0.09-0.88c0.27-3.28,0.54-6.61,0.81-9.98c5.15-64.45,11.93-110.59,52.45-116.7   c24.9-2.29,46.16,5.41,63.2,22.85c25.51,26.11,38.5,72.27,33.13,117.64c-5.56,37.53-24.77,50.74-45.1,64.72   c-13.88,9.54-28.24,19.41-36.29,36.36l-0.3,0.67c-15.7,36.43,7.12,67.03,27.25,94.03c10.35,13.88,20.95,28.11,26.59,42.83   c-17,2.21-34.34,3.35-51.93,3.35C1123.44,1120.15,1053.66,1099.78,993.83,1064.33z M1599.2,707.31   c-44.49,24.98-60.93,17.6-66.58,15.06c-15.99-7.18-29.29-28.55-44.69-53.28c-24.28-38.98-54.48-87.48-116.01-119.56   c-64.72-35.16-100.5-119.83-93.33-176.91c1.93-15.39,7.9-34.43,24.98-41.33C1470.34,376.84,1594.18,527.48,1599.2,707.31z    M1197.88,317.18c19.5,0,38.68,1.4,57.45,4.1c-8.49,12.48-14.15,28.14-16.44,46.35c-8.79,69.93,32.34,172.83,114.1,217.14l0.3,0.16   c51.94,27.03,77.84,68.62,100.69,105.31c18.86,30.29,35.15,56.44,62.25,68.62c9.54,4.29,19.73,6.45,30.73,6.45   c15.26,0,32.1-4.16,50.97-12.57c-14.75,174.59-141.7,317.73-308.29,356.82c-6.98-22.78-21.32-42.03-34.35-59.5   c-17.92-24.04-28.65-39.57-22.73-53.95c3.53-7.09,11.99-12.9,22.66-20.24c22.8-15.67,54.02-37.14,62.06-92.15l0.07-0.51   c6.95-57.89-9.99-115.6-44.2-150.62c-25.67-26.27-58.92-38.26-96.12-34.67l-0.91,0.11c-34.13,4.88-58.24,25.72-71.67,61.96   c-10.4,28.07-13.08,61.62-15.44,91.22c-0.25,3.17-0.5,6.3-0.76,9.38c-5.46,40.97-44.37,84.9-82.01,127.39   c-15.65,17.67-31.7,35.8-45.85,54.2c-89.34-65.75-150.57-167.57-162.04-283.79c29.63-20.68,64.11-23.24,97.54-25.71   c44.16-3.26,89.83-6.64,117.41-52.25l0.39-0.65l0.34-0.68c37.41-74.02,45.76-137.83,24.81-189.66   c-14.9-36.86-44.72-66.79-87.1-87.77C1019.77,348.74,1105.21,317.18,1197.88,317.18z M918.51,430.59   c42.3,16.96,70.29,41.76,83.26,73.85c16.37,40.51,8.61,92.97-23.07,155.91c-16.13,26.07-41.88,29.2-85.75,32.44   c-30.59,2.26-64.23,4.75-96.51,20.42C797.91,602.49,844.45,502.43,918.51,430.59z"/><path d="M1366.13,866.28c2.95,12.82,8.16,31.16,16.33,46.49c14.09,26.43,31.37,32.93,43.38,33.73l1,0.07l1-0.03   c11.27-0.38,31.41-6.37,39.56-42.24c3.74-16.47,4.35-35.15,4.74-47.5l0.04-1.23l-0.11-1.23c-0.43-4.73-0.71-9.55-0.97-14.21   c-0.83-14.48-1.61-28.16-6.83-39.92c-5.17-11.63-16.63-25.5-41.87-25.5c-1.31,0-2.67,0.04-4.04,0.11c-0.29,0-0.58,0-0.86,0   c-21.9,0-38.07,6.62-48.06,19.67c-16.78,21.91-8.46,52.71-3.49,71.12L1366.13,866.28z M1401.2,818.81   c1.48-1.93,6.54-3.99,16.31-3.99c0.35,0,0.7,0,1.06,0.01l0.8,0.01l0.79-0.05c0.79-0.05,1.55-0.08,2.26-0.08   c3.19,0,4.47,0.52,4.71,0.64c2.68,3,3.6,19.24,4.05,27.06c0.26,4.6,0.53,9.35,0.96,14.3c-0.29,9.01-0.74,20.92-2.42,31.75   c-1.35,8.67-3.04,13.62-4.28,16.3c-4.98-4.59-13.68-18.36-20.39-47.77l-0.47-1.81C1402.13,846.16,1396.43,825.03,1401.2,818.81z"/><path d="M1807.88,1178.23c-30.78-52.04-98.15-69.34-150.19-38.56c-1.23,0.73-2.34,1.57-3.35,2.49c-0.6,0.4-1.18,0.83-1.74,1.3   c-80.98,67.98-155.69,113.87-239.17,146.61c-4.73-18.97-14.5-36.93-29.3-51.74c-29.63-29.63-72.67-40.11-112.57-27.5   c-111.39,26.88-210.75,26.71-303.75-0.55c-95.38-36.37-184.5-49.04-280.38-39.88c-79.26,7.58-163.63,29.39-278.13,72.18   l-0.05-19.57c0,0,0,0,0,0l0,0c-0.05-18.1-7.14-35.11-19.97-47.88c-12.79-12.73-29.76-19.73-47.8-19.73c-0.04,0-0.09,0-0.13,0   c-0.02,0-0.03,0-0.05,0c0,0,0,0,0,0l0,0l-96.84,0.24h0c-37.37,0.1-67.71,30.58-67.61,67.95v0l0,0l1.07,429.13   c-0.1,0.81-0.16,1.62-0.16,2.45c0.09,37.23,30.33,67.46,67.51,67.61c0.13,0,0.26,0.02,0.39,0.02c0.02,0,0.03,0,0.05,0l97.17-0.24   c0.24,0,0.47-0.03,0.71-0.04c17.84-0.23,34.57-7.29,47.17-19.95c12.77-12.83,19.78-29.87,19.73-47.98c0-0.83-0.07-1.65-0.17-2.45   l-0.01-5.16c80.14,12.73,209.4,29.57,331.17,40.2c88.08,7.68,162.82,11.53,223.81,11.53c61.93,0,109.69-3.96,142.81-11.89   c44.83-10.72,81.31-21.34,105.51-30.71c0.11-0.04,0.22-0.1,0.33-0.15c0.12-0.05,0.23-0.08,0.35-0.13   c112.2-48.29,213.67-98.39,301.61-148.91c108.66-62.42,200.94-127.88,274.28-194.54c0.11-0.1,0.21-0.22,0.32-0.33   c0.11-0.1,0.22-0.19,0.33-0.3C1826.42,1276.36,1833.43,1221.45,1807.88,1178.23z M369.24,1223.13l1.08,431.6   c0,0.63,0.04,1.26,0.1,1.88c-0.43,6.71-3.24,12.96-8.02,17.77c-5.23,5.26-12.2,8.17-19.62,8.18c-0.12,0-0.24,0.02-0.37,0.02   l-96.52,0.24c-0.08,0-0.16-0.01-0.24-0.01c-0.04,0-0.08,0-0.12,0c-14.66,0-26.7-11.41-27.71-25.83c0.06-0.62,0.09-1.24,0.09-1.87   l-1.08-431.6c-0.04-15.32,12.4-27.82,27.72-27.86l0,0l96.84-0.24c0.02,0,0.05,0,0.08,0c7.39,0,14.35,2.87,19.59,8.09   C366.32,1208.73,369.22,1215.71,369.24,1223.13L369.24,1223.13z M1198.81,1618.96c-22.25,8.58-57.75,18.87-100.03,28.98   c-135.6,32.44-535.05-16.71-688.59-41.46l-0.8-321.18c208.91-79.57,359.32-108.33,544.86-37.37c0.49,0.19,0.99,0.36,1.49,0.5   c100.27,29.56,206.81,29.94,325.71,1.16c0.25-0.06,0.48-0.15,0.73-0.22c0.26-0.07,0.51-0.12,0.77-0.21   c25.78-8.41,53.71-1.72,72.88,17.45c27.93,27.93,27.93,73.38,0,101.31c-9.43,9.43-21.27,16.03-34.26,19.08   c-0.27,0.06-0.52,0.15-0.78,0.23c-0.27,0.07-0.54,0.13-0.8,0.22c-112.16,36.31-228.49,37.17-336.41,2.49   c-10.52-3.38-21.78,2.41-25.16,12.92c-3.38,10.52,2.41,21.78,12.92,25.16c56.08,18.02,114.84,27.15,174.74,27.15   c1.89,0,3.77-0.01,5.66-0.03c60.65-0.58,121.17-10.49,179.9-29.43c19.87-4.85,38-15.03,52.47-29.5   c18.01-18.02,28.56-40.71,31.67-64.21c92.66-34.65,174.15-83.72,262.52-157.9c0.14-0.12,0.26-0.25,0.4-0.37   c32.96-19.02,75.33-7.98,94.75,24.86c16.18,27.35,11.81,62.08-10.6,84.58C1633.68,1400.46,1443.92,1513.43,1198.81,1618.96z"/></g></svg>